<?xml version="1.0" encoding="UTF-8"?>
<svg version="1.1" xmlns="http://www.w3.org/2000/svg" width="186" height="156">
<path d="M0 0 C61.38 0 122.76 0 186 0 C186 51.48 186 102.96 186 156 C124.62 156 63.24 156 0 156 C0 104.52 0 53.04 0 0 Z " fill="#EE975D" transform="translate(0,0)"/>
<path d="M0 0 C61.38 0 122.76 0 186 0 C186 51.48 186 102.96 186 156 C124.62 156 63.24 156 0 156 C0 104.52 0 53.04 0 0 Z M33.25390625 38.3671875 C29.60316479 42.63165846 26.65385858 47.0583323 24 52 C23.34837891 53.17175781 23.34837891 53.17175781 22.68359375 54.3671875 C17.56631196 65.52892409 18.2431065 81.09284807 21.9375 92.625 C29.05089616 109.32255177 43.31140648 122.11447435 59.81640625 129.2109375 C62.5231466 130.23510952 65.23549395 131.14479309 68 132 C69.35931641 132.43119141 69.35931641 132.43119141 70.74609375 132.87109375 C80.10839812 135.6465854 89.23595623 136.06975203 98.9375 136.125 C99.71689941 136.13265381 100.49629883 136.14030762 101.29931641 136.14819336 C105.86026913 136.14867215 109.95185758 135.64946476 114.4375 134.75 C118.53283827 134.32458397 119.6423921 134.71629773 122.9296875 137.32421875 C125.87439775 140.34899666 128.45383053 143.63884759 131 147 C135.15432216 152.78403648 135.15432216 152.78403648 141.25 155.75 C144.03365796 155.2294616 144.03365796 155.2294616 145.66625977 153.37719727 C147.47307495 150.15681297 147.24258976 147.89030991 147.08984375 144.21484375 C147.05880626 142.87069063 147.03184619 141.52643839 147.00854492 140.18212891 C146.99471771 139.48710266 146.9808905 138.79207642 146.96664429 138.07598877 C146.72936359 120.66529985 146.72936359 120.66529985 150.515625 115.82421875 C153.35950802 113.10140971 156.67680415 111.09477715 160 109 C162.53744907 106.24033034 164.27676251 103.31825791 166 100 C166.556875 98.97003906 167.11375 97.94007812 167.6875 96.87890625 C173.6658547 84.24409643 174.64181066 69.10423768 170 55.8125 C161.59424927 37.67502095 146.15543007 24.96251782 127.73242188 17.89941406 C95.1373911 6.2726298 57.42851634 12.98966744 33.25390625 38.3671875 Z " fill="#FEFDFE" transform="translate(0,0)"/>
<path d="M0 0 C3.0625 0.3125 3.0625 0.3125 4.68530273 1.58300781 C6.24240373 3.53842412 6.67139021 4.85955412 7.16015625 7.296875 C7.32193359 8.06773438 7.48371094 8.83859375 7.65039062 9.6328125 C7.80701172 10.43460938 7.96363281 11.23640625 8.125 12.0625 C8.44717802 13.64104289 8.7713713 15.2191759 9.09765625 16.796875 C9.25516357 17.56306152 9.4126709 18.32924805 9.57495117 19.11865234 C10.26485324 22.22303889 11.18428022 25.25687582 12.0625 28.3125 C12.44462256 30.26557087 12.80135811 32.22389123 13.125 34.1875 C13.44950433 37.55563984 13.44950433 37.55563984 15.0625 40.3125 C15.37703125 39.22710937 15.6915625 38.14171875 16.015625 37.0234375 C16.44738885 35.57796723 16.87971025 34.13266343 17.3125 32.6875 C17.51746094 31.97464844 17.72242187 31.26179688 17.93359375 30.52734375 C19.35361696 25.83696406 21.02841814 22.18439539 24.0625 18.3125 C26.5 17.5 26.5 17.5 29.0625 18.3125 C34.61387551 24.14144429 36.61491888 31.80311281 39.0625 39.3125 C39.25827637 38.47609985 39.25827637 38.47609985 39.45800781 37.62280273 C40.96951642 31.18036125 42.50716165 24.74449584 44.0625 18.3125 C44.35012207 17.11536377 44.35012207 17.11536377 44.64355469 15.89404297 C45.14613146 13.82194367 45.6635491 11.75428237 46.1875 9.6875 C46.47882813 8.51960938 46.77015625 7.35171875 47.0703125 6.1484375 C48.04938888 3.34997509 48.66805079 2.0177281 51.0625 0.3125 C54.125 0 54.125 0 57.0625 0.3125 C59.45037429 2.70037429 59.38332339 3.29023296 59.4375 6.5625 C59.32438728 12.20197694 57.85535788 17.17081411 56.20703125 22.53515625 C55.01807829 26.45910681 53.98286441 30.39580732 53 34.375 C52.83346924 35.04273438 52.66693848 35.71046875 52.49536133 36.3984375 C51.42456554 40.73017326 50.45225645 45.07795092 49.5 49.4375 C48.26228559 54.86595395 47.08102187 59.29397813 43.0625 63.3125 C40.6875 63.75 40.6875 63.75 38.0625 63.3125 C34.74850188 59.79784965 33.07173823 56.32510622 31.4375 51.8125 C31.03273437 50.7090625 30.62796875 49.605625 30.2109375 48.46875 C29.83195312 47.4271875 29.45296875 46.385625 29.0625 45.3125 C28.40280288 43.64306239 27.73878311 41.97528783 27.0625 40.3125 C24.55782367 42.81717633 24.49935993 44.42749149 23.8125 47.875 C22.43849358 53.62778445 20.54046824 59.22661193 16.0625 63.3125 C13.6171875 63.859375 13.6171875 63.859375 11.0625 63.3125 C6.4451215 59.28078164 5.49598345 53.71589951 4.0625 48 C3.80686279 47.0210376 3.55122559 46.0420752 3.2878418 45.03344727 C2.53321133 42.12957987 1.79595295 39.22177817 1.0625 36.3125 C0.67361803 34.7967618 0.28433874 33.28112544 -0.10546875 31.765625 C-1.07874692 27.95493978 -2.00876379 24.13429058 -2.9375 20.3125 C-3.40542969 18.48332031 -3.40542969 18.48332031 -3.8828125 16.6171875 C-4.16898437 15.46476562 -4.45515625 14.31234375 -4.75 13.125 C-5.00394531 12.12082031 -5.25789063 11.11664063 -5.51953125 10.08203125 C-5.96533786 7.12804167 -5.81692101 5.15710762 -4.9375 2.3125 C-2.9375 0.3125 -2.9375 0.3125 0 0 Z " fill="#FEFAF9" transform="translate(68.9375,39.6875)"/>
</svg>
